<?xml version="1.0" encoding="UTF-8"?>
<svg id="a" data-name="Comp" xmlns="http://www.w3.org/2000/svg" viewBox="0 0 483.6 350.4">
  <defs>
    <style>
      .j {
        stroke: #8c8c8c;
        stroke-width: 2px;
      }

      .j, .k {
        fill: none;
        stroke-miterlimit: 100;
      }

      .l {
        fill: #2c2c2c;
      }

      .l, .m, .n {
        stroke-width: 0px;
      }

      .k {
        stroke: #fff;
      }

      .m {
        fill: #1a1a1a;
      }

      .o {
        isolation: isolate;
      }

      .n {
        fill: #fff;
      }
    </style>
  </defs>
  <g id="b" data-name="Rectangle 5">
    <rect class="m" x="186" y="93.36" width="118.8" height="206.88" rx="4.32" ry="4.32"/>
    <rect class="j" x="186" y="93.36" width="118.8" height="206.88" rx="4.32" ry="4.32"/>
  </g>
  <g id="c" data-name="Line 1 copy">
    <path class="n" d="M223.42,175.74h2.71v-.19h-2.71v.19ZM196.13,175.92h2.71v-.19h-2.71v.19ZM211.29,159.76l.03,2.79h.18l-.03-2.79h-.18ZM225.75,124.95h-2.71v.19h2.71v-.19ZM198.46,125.13h-2.71v.19h2.71v-.19ZM210.92,109.16l.03,2.79h.18l-.03-2.79h-.18ZM290.45,176.3h2.71v-.19h-2.71v.19ZM263.16,176.48h2.71v-.19h-2.71v.19ZM278.32,160.32l.03,2.79h.18l-.03-2.79h-.18ZM257.01,125.13h2.71v-.19h-2.71v.19ZM229.73,125.32h2.71v-.19h-2.71v.19ZM244.89,109.16l.03,2.79h.18l-.03-2.79h-.18ZM290.45,124.95v.19h2.71v-.19h-2.71ZM263.16,125.32h2.71v-.19h-2.71v.19ZM278.32,109.16l.03,2.79h.18l-.03-2.79h-.18Z"/>
    <path class="k" d="M223.42,175.74h2.71v-.19h-2.71v.19ZM196.13,175.92h2.71v-.19h-2.71v.19ZM211.29,159.76l.03,2.79h.18l-.03-2.79h-.18ZM225.75,124.95h-2.71v.19h2.71v-.19ZM198.46,125.13h-2.71v.19h2.71v-.19ZM210.92,109.16l.03,2.79h.18l-.03-2.79h-.18ZM290.45,176.3h2.71v-.19h-2.71v.19ZM263.16,176.48h2.71v-.19h-2.71v.19ZM278.32,160.32l.03,2.79h.18l-.03-2.79h-.18ZM257.01,125.13h2.71v-.19h-2.71v.19ZM229.73,125.32h2.71v-.19h-2.71v.19ZM244.89,109.16l.03,2.79h.18l-.03-2.79h-.18ZM290.45,124.95v.19h2.71v-.19h-2.71ZM263.16,125.32h2.71v-.19h-2.71v.19ZM278.32,109.16l.03,2.79h.18l-.03-2.79h-.18Z"/>
  </g>
  <g id="d" data-name="COMP">
    <g class="o">
      <g class="o">
        <path class="n" d="M200.07,150.04h.48l2.15,4.83h-.7l-.64-1.42h-2.05l-.6,1.42h-.71l2.06-4.83ZM201.08,152.83l-.78-1.74-.72,1.74h1.49Z"/>
        <path class="n" d="M202.12,150.06h4.01v.61h-1.67v4.2h-.69v-4.2h-1.65v-.61Z"/>
        <path class="n" d="M206.37,150.06h4.01v.61h-1.67v4.2h-.69v-4.2h-1.65v-.61Z"/>
        <path class="n" d="M211.86,150.04h.48l2.15,4.83h-.7l-.64-1.42h-2.05l-.6,1.42h-.71l2.06-4.83ZM212.87,152.83l-.77-1.74-.72,1.74h1.49Z"/>
        <path class="n" d="M218.88,153.76v.76c-.5.28-1.09.41-1.75.41-.54,0-.99-.11-1.37-.32-.37-.21-.67-.51-.89-.89s-.33-.79-.33-1.23c0-.7.25-1.29.75-1.76.5-.48,1.11-.71,1.84-.71.5,0,1.06.13,1.68.4v.74c-.56-.32-1.11-.48-1.65-.48s-1.01.17-1.37.52c-.36.35-.54.78-.54,1.3s.18.96.54,1.3c.36.34.81.51,1.37.51s1.15-.18,1.71-.54Z"/>
        <path class="n" d="M222.44,150.07h.86l-2.08,2.28,2.59,2.52h-.94l-2.45-2.37v2.37h-.69v-4.8h.69v2.2l2.02-2.2Z"/>
      </g>
    </g>
    <g class="o">
      <g class="o">
        <path class="n" d="M198.76,209.25v-4.8h1.2c.49,0,.87.12,1.16.36.29.24.43.57.43.98,0,.28-.07.52-.21.73-.14.2-.34.36-.6.46.15.1.3.24.45.41.15.17.35.48.62.91.17.27.3.48.4.62l.25.34h-.82l-.21-.32s-.02-.03-.04-.06l-.13-.19-.21-.35-.23-.38c-.14-.2-.27-.35-.39-.47-.12-.12-.23-.2-.32-.25s-.26-.08-.48-.08h-.18v2.09h-.69ZM199.65,205.03h-.21v1.52h.26c.35,0,.59-.03.72-.09s.23-.15.3-.27c.07-.12.11-.26.11-.41s-.04-.29-.12-.41c-.08-.12-.19-.21-.34-.26-.15-.05-.39-.08-.72-.08Z"/>
        <path class="n" d="M202.99,204.45h2.72v.61h-2.04v1.46h1.97v.62h-1.97v1.49h2.1v.61h-2.79v-4.79Z"/>
        <path class="n" d="M206.51,204.45h.69v4.18h2.16v.63h-2.85v-4.8Z"/>
        <path class="n" d="M209.96,204.45h2.72v.61h-2.04v1.46h1.97v.62h-1.97v1.49h2.1v.61h-2.79v-4.79Z"/>
        <path class="n" d="M215.02,204.42h.48l2.15,4.83h-.7l-.64-1.42h-2.05l-.6,1.42h-.71l2.06-4.83ZM216.03,207.21l-.77-1.74-.72,1.74h1.49Z"/>
        <path class="n" d="M219.37,207.24l-.52-.32c-.33-.2-.56-.4-.7-.59-.14-.19-.21-.42-.21-.67,0-.38.13-.69.39-.92.26-.24.6-.35,1.02-.35s.77.11,1.1.34v.78c-.35-.33-.72-.5-1.12-.5-.22,0-.41.05-.55.16-.14.1-.22.24-.22.4,0,.14.05.28.16.4.11.12.28.26.51.4l.53.31c.59.35.88.79.88,1.34,0,.38-.13.7-.39.94-.26.24-.59.36-1.01.36-.47,0-.91-.15-1.3-.44v-.87c.37.47.8.71,1.29.71.22,0,.39-.06.54-.18.14-.12.21-.27.21-.45,0-.29-.21-.57-.63-.83Z"/>
        <path class="n" d="M221.4,204.45h2.72v.61h-2.04v1.46h1.97v.62h-1.97v1.49h2.1v.61h-2.79v-4.79Z"/>
      </g>
    </g>
    <g class="o">
      <g class="o">
        <path class="n" d="M270.14,204.45h.69v4.18h2.16v.63h-2.85v-4.8Z"/>
        <path class="n" d="M273.59,204.45h2.72v.61h-2.04v1.46h1.97v.62h-1.97v1.49h2.1v.61h-2.79v-4.79Z"/>
        <path class="n" d="M280.15,204.45h.68l-2.03,4.82h-.16l-2.07-4.82h.69l1.44,3.37,1.43-3.37Z"/>
        <path class="n" d="M281.36,204.45h2.72v.61h-2.04v1.46h1.97v.62h-1.97v1.49h2.1v.61h-2.79v-4.79Z"/>
        <path class="n" d="M284.88,204.45h.69v4.18h2.16v.63h-2.85v-4.8Z"/>
      </g>
    </g>
    <g class="o">
      <g class="o">
        <path class="n" d="M234.82,150.06h4.01v.61h-1.67v4.2h-.69v-4.2h-1.65v-.61Z"/>
        <path class="n" d="M242.87,150.07h.69v4.8h-.69v-2.09h-2.7v2.09h-.69v-4.8h.69v2.08h2.7v-2.08Z"/>
        <path class="n" d="M244.63,154.87v-4.8h1.2c.49,0,.87.12,1.16.36.29.24.43.57.43.98,0,.28-.07.52-.21.73-.14.2-.34.36-.6.46.15.1.3.24.45.41.15.17.35.48.62.91.17.27.3.48.4.62l.25.34h-.82l-.21-.32s-.02-.03-.04-.06l-.13-.19-.21-.35-.23-.38c-.14-.2-.27-.35-.39-.47-.12-.12-.22-.2-.32-.25-.09-.05-.25-.08-.48-.08h-.18v2.09h-.69ZM245.53,150.65h-.21v1.52h.26c.35,0,.59-.03.72-.09.13-.06.23-.15.3-.27.07-.12.11-.26.11-.41s-.04-.29-.12-.41c-.08-.12-.19-.21-.34-.26-.15-.05-.39-.08-.72-.08Z"/>
        <path class="n" d="M248.87,150.07h2.72v.61h-2.04v1.46h1.97v.62h-1.97v1.49h2.1v.61h-2.79v-4.79Z"/>
        <path class="n" d="M253.58,152.86l-.52-.32c-.33-.2-.56-.4-.7-.59-.14-.19-.21-.42-.21-.67,0-.38.13-.69.39-.92.26-.24.6-.35,1.02-.35s.77.11,1.1.34v.78c-.35-.33-.72-.5-1.12-.5-.22,0-.41.05-.55.16-.14.1-.22.24-.22.4,0,.14.05.28.16.4.11.12.28.26.51.4l.53.31c.59.35.88.79.88,1.34,0,.38-.13.7-.39.94-.26.24-.59.36-1.01.36-.47,0-.91-.15-1.3-.44v-.87c.37.47.8.71,1.29.71.22,0,.39-.06.54-.18.14-.12.21-.27.21-.45,0-.29-.21-.57-.63-.83Z"/>
      </g>
    </g>
    <g class="o">
      <g class="o">
        <path class="n" d="M268.69,154.87v-4.8h1.2c.49,0,.87.12,1.16.36.29.24.43.57.43.98,0,.28-.07.52-.21.73-.14.2-.34.36-.6.46.15.1.3.24.45.41.15.17.35.48.62.91.17.27.3.48.4.62l.25.34h-.82l-.21-.32s-.02-.03-.04-.06l-.13-.19-.21-.35-.23-.38c-.14-.2-.27-.35-.39-.47-.12-.12-.22-.2-.32-.25-.09-.05-.25-.08-.48-.08h-.18v2.09h-.69ZM269.58,150.65h-.21v1.52h.26c.35,0,.59-.03.72-.09.13-.06.23-.15.3-.27.07-.12.11-.26.11-.41s-.04-.29-.12-.41c-.08-.12-.19-.21-.34-.26-.15-.05-.39-.08-.72-.08Z"/>
        <path class="n" d="M274.45,150.04h.48l2.15,4.83h-.7l-.64-1.42h-2.05l-.6,1.42h-.71l2.06-4.83ZM275.46,152.83l-.78-1.74-.72,1.74h1.49Z"/>
        <path class="n" d="M276.5,150.06h4.01v.61h-1.67v4.2h-.69v-4.2h-1.65v-.61Z"/>
        <path class="n" d="M281.17,150.07h.69v4.8h-.69v-4.8Z"/>
        <path class="n" d="M285.28,150c.74,0,1.36.24,1.85.71.49.47.74,1.06.74,1.77s-.25,1.29-.75,1.76c-.5.46-1.13.7-1.88.7s-1.33-.23-1.81-.7c-.48-.46-.72-1.05-.72-1.75s.24-1.31.73-1.78,1.1-.71,1.84-.71ZM285.31,150.65c-.55,0-1,.17-1.35.52-.35.34-.53.78-.53,1.32s.18.95.53,1.29c.36.34.8.52,1.33.52s.98-.18,1.34-.53.54-.79.54-1.31-.18-.94-.54-1.28c-.36-.35-.8-.52-1.32-.52Z"/>
      </g>
    </g>
  </g>
  <g id="e" data-name="Ratio Knob">
    <path class="l" d="M278.34,139.16c7.76,0,14.05-6.47,14.05-14.44s-6.29-14.44-14.05-14.44-14.05,6.47-14.05,14.44,6.29,14.44,14.05,14.44ZM210.93,139.16c7.76,0,14.05-6.47,14.05-14.44s-6.29-14.44-14.05-14.44-14.05,6.47-14.05,14.44,6.29,14.44,14.05,14.44ZM211.3,160.88c-7.76,0-14.05,6.47-14.05,14.44s6.29,14.44,14.05,14.44,14.05-6.47,14.05-14.44-6.29-14.44-14.05-14.44ZM278.34,161.44c-7.76,0-14.05,6.47-14.05,14.44s6.29,14.44,14.05,14.44,14.05-6.47,14.05-14.44-6.29-14.44-14.05-14.44ZM244.9,110.27c-7.76,0-14.05,6.47-14.05,14.44s6.29,14.44,14.05,14.44,14.05-6.47,14.05-14.44-6.29-14.44-14.05-14.44h0Z"/>
  </g>
  <g id="f" data-name="Triangle 1 copy">
    <polygon class="n" points="208.36 96.8 210.85 99.29 213.34 96.8 208.36 96.8"/>
  </g>
  <g id="g" data-name="BYPASS">
    <g class="o">
      <g class="o">
        <path class="n" d="M238.88,287.09h-1.07v-3.17h.83c.26,0,.47.04.61.11.15.07.26.17.34.29.08.12.12.27.12.43,0,.31-.16.54-.48.67.23.04.42.14.55.29.14.15.21.32.21.53,0,.16-.04.31-.12.43-.08.13-.21.23-.37.31s-.36.12-.6.12ZM238.65,284.32h-.39v.95h.3c.24,0,.41-.05.52-.14.1-.09.15-.21.15-.36,0-.3-.19-.46-.58-.46ZM238.69,285.68h-.42v1.01h.45c.25,0,.42-.02.51-.06.09-.04.16-.1.21-.18s.08-.17.08-.26-.03-.19-.08-.27c-.06-.08-.14-.14-.24-.18-.1-.04-.27-.06-.49-.06Z"/>
        <path class="n" d="M242.33,283.92h.55l-1.17,1.49v1.68h-.47v-1.68l-1.17-1.49h.55l.85,1.09.86-1.09Z"/>
        <path class="n" d="M243.21,287.09v-3.18h1.01c.3,0,.54.08.72.25.18.16.27.38.27.66,0,.18-.05.35-.14.49-.09.14-.22.25-.38.31-.16.06-.39.1-.69.1h-.34v1.38h-.46ZM244.14,284.32h-.47v.99h.5c.18,0,.33-.04.43-.13.1-.09.15-.21.15-.37,0-.33-.2-.49-.6-.49Z"/>
        <path class="n" d="M246.25,283.9h.32l1.42,3.19h-.46l-.42-.94h-1.35l-.4.94h-.47l1.36-3.19ZM246.91,285.75l-.51-1.15-.47,1.15h.99Z"/>
        <path class="n" d="M249.12,285.76l-.34-.21c-.22-.13-.37-.26-.46-.39-.09-.13-.14-.28-.14-.44,0-.25.09-.45.26-.61.17-.16.4-.23.68-.23s.51.07.73.22v.51c-.23-.22-.47-.33-.74-.33-.15,0-.27.03-.37.1-.09.07-.14.16-.14.26,0,.09.04.18.11.27s.18.17.34.26l.35.21c.39.23.58.53.58.88,0,.25-.08.46-.25.62-.17.16-.39.24-.66.24-.31,0-.6-.1-.86-.29v-.58c.25.31.53.47.85.47.14,0,.26-.04.36-.12s.14-.18.14-.3c0-.19-.14-.38-.42-.55Z"/>
        <path class="n" d="M251.25,285.76l-.34-.21c-.22-.13-.37-.26-.46-.39-.09-.13-.14-.28-.14-.44,0-.25.09-.45.26-.61.17-.16.4-.23.68-.23s.51.07.73.22v.51c-.23-.22-.47-.33-.74-.33-.15,0-.27.03-.37.1-.09.07-.14.16-.14.26,0,.09.04.18.11.27s.18.17.34.26l.35.21c.39.23.58.53.58.88,0,.25-.08.46-.25.62-.17.16-.39.24-.66.24-.31,0-.6-.1-.86-.29v-.58c.25.31.53.47.85.47.14,0,.26-.04.36-.12s.14-.18.14-.3c0-.19-.14-.38-.42-.55Z"/>
      </g>
    </g>
  </g>
  <g id="h" data-name="COMPRESSOR">
    <g class="o">
      <g class="o">
        <path class="n" d="M215.08,227.49v1.29c-.86.47-1.85.7-2.98.7-.91,0-1.69-.18-2.33-.55s-1.14-.87-1.51-1.52-.56-1.34-.56-2.09c0-1.19.42-2.19,1.27-3.01s1.9-1.22,3.14-1.22c.86,0,1.81.22,2.87.67v1.26c-.96-.55-1.89-.82-2.81-.82s-1.72.3-2.33.89-.93,1.33-.93,2.22.3,1.64.91,2.21,1.39.87,2.34.87,1.96-.3,2.91-.91Z"/>
        <path class="n" d="M220.54,221.09c1.26,0,2.32.4,3.16,1.2.84.8,1.26,1.8,1.26,3.01s-.42,2.21-1.27,3-1.92,1.19-3.21,1.19-2.26-.4-3.08-1.19-1.23-1.78-1.23-2.97.41-2.23,1.24-3.04,1.87-1.2,3.14-1.2ZM220.58,222.2c-.94,0-1.71.29-2.31.88s-.9,1.33-.9,2.24.3,1.62.91,2.2,1.36.88,2.27.88,1.68-.3,2.29-.9c.61-.6.92-1.34.92-2.23s-.31-1.6-.92-2.19c-.61-.59-1.36-.89-2.25-.89Z"/>
        <path class="n" d="M232.91,221.2h1.1v8.19h-1.18v-6.37l-2.52,3.16h-.22l-2.55-3.16v6.37h-1.17v-8.19h1.11l2.72,3.36,2.7-3.36Z"/>
        <path class="n" d="M235.7,229.39v-8.2h2.6c.78,0,1.4.21,1.87.63s.7.99.7,1.7c0,.48-.12.9-.36,1.27s-.56.63-.98.8-1.01.25-1.78.25h-.87v3.55h-1.18ZM238.09,222.24h-1.21v2.56h1.28c.48,0,.84-.11,1.1-.34s.39-.55.39-.96c0-.84-.52-1.26-1.56-1.26Z"/>
        <path class="n" d="M241.92,229.39v-8.19h2.05c.83,0,1.49.21,1.97.62s.73.96.73,1.66c0,.48-.12.89-.36,1.24s-.58.61-1.03.78c.26.17.52.41.77.7s.6.81,1.05,1.55c.29.46.51.81.69,1.05l.43.59h-1.39l-.36-.54s-.04-.05-.07-.1l-.23-.32-.36-.6-.39-.64c-.24-.34-.46-.6-.67-.8-.2-.2-.38-.34-.55-.43s-.43-.13-.82-.13h-.3v3.56h-1.17ZM243.44,222.2h-.35v2.58h.45c.59,0,1-.05,1.22-.15s.39-.25.52-.46.18-.44.18-.7-.07-.49-.21-.7-.33-.36-.58-.44-.66-.13-1.23-.13Z"/>
        <path class="n" d="M249.13,221.2h4.64v1.04h-3.47v2.5h3.35v1.05h-3.35v2.54h3.58v1.04h-4.75v-8.17Z"/>
        <path class="n" d="M257.16,225.96l-.89-.54c-.56-.34-.96-.68-1.19-1.01s-.35-.71-.35-1.14c0-.64.22-1.17.67-1.57s1.03-.6,1.74-.6,1.31.19,1.88.58v1.33c-.59-.57-1.22-.85-1.9-.85-.38,0-.7.09-.94.27s-.37.4-.37.68c0,.25.09.47.27.69.18.21.47.44.88.67l.89.53c1,.6,1.5,1.36,1.5,2.28,0,.66-.22,1.19-.66,1.6s-1.01.62-1.71.62c-.81,0-1.54-.25-2.21-.75v-1.49c.63.8,1.37,1.2,2.2,1.2.37,0,.67-.1.92-.31s.37-.46.37-.77c0-.5-.36-.97-1.08-1.42Z"/>
        <path class="n" d="M262.66,225.96l-.89-.54c-.56-.34-.96-.68-1.19-1.01s-.35-.71-.35-1.14c0-.64.22-1.17.67-1.57s1.03-.6,1.74-.6,1.31.19,1.88.58v1.33c-.59-.57-1.22-.85-1.9-.85-.38,0-.7.09-.94.27s-.37.4-.37.68c0,.25.09.47.27.69.18.21.47.44.88.67l.89.53c1,.6,1.5,1.36,1.5,2.28,0,.66-.22,1.19-.66,1.6s-1.01.62-1.71.62c-.81,0-1.54-.25-2.21-.75v-1.49c.63.8,1.37,1.2,2.2,1.2.37,0,.67-.1.92-.31s.37-.46.37-.77c0-.5-.36-.97-1.08-1.42Z"/>
        <path class="n" d="M270.14,221.09c1.26,0,2.32.4,3.16,1.2.84.8,1.26,1.8,1.26,3.01s-.42,2.21-1.27,3c-.85.79-1.92,1.19-3.21,1.19s-2.26-.4-3.08-1.19c-.82-.79-1.23-1.78-1.23-2.97s.41-2.23,1.24-3.04c.83-.8,1.87-1.2,3.14-1.2ZM270.19,222.2c-.94,0-1.71.29-2.31.88-.6.59-.9,1.33-.9,2.24s.3,1.62.91,2.2c.6.59,1.36.88,2.27.88s1.67-.3,2.29-.9c.61-.6.92-1.34.92-2.23s-.31-1.6-.92-2.19c-.61-.59-1.36-.89-2.25-.89Z"/>
        <path class="n" d="M276.04,229.39v-8.19h2.05c.83,0,1.49.21,1.97.62s.73.96.73,1.66c0,.48-.12.89-.36,1.24s-.58.61-1.03.78c.26.17.52.41.77.7s.6.81,1.05,1.55c.29.46.51.81.69,1.05l.43.59h-1.39l-.36-.54s-.04-.05-.07-.1l-.23-.32-.36-.6-.39-.64c-.24-.34-.46-.6-.67-.8-.2-.2-.38-.34-.55-.43s-.43-.13-.82-.13h-.3v3.56h-1.17ZM277.56,222.2h-.35v2.58h.45c.59,0,1-.05,1.22-.15s.39-.25.52-.46.18-.44.18-.7-.07-.49-.21-.7-.33-.36-.58-.44-.66-.13-1.23-.13Z"/>
      </g>
    </g>
  </g>
  <g id="i" data-name="Triangle 2">
    <polygon class="n" points="278.16 95.28 276 99.36 280.32 99.36 278.16 95.28"/>
  </g>
</svg>