<?xml version="1.0" encoding="UTF-8"?>
<svg id="a" data-name="Comp" xmlns="http://www.w3.org/2000/svg" viewBox="0 0 483.6 350.4">
  <defs>
    <style>
      .k {
        fill: #2c2c2c;
      }

      .k, .l, .m {
        stroke-width: 0px;
      }

      .l {
        fill: #000;
      }

      .n {
        fill: none;
        stroke: #888a9b;
        stroke-miterlimit: 100;
        stroke-width: 2px;
      }

      .m {
        fill: #f4feff;
      }
    </style>
  </defs>
  <g id="b" data-name="Rectangle 5">
    <rect class="m" x="186" y="93.36" width="118.8" height="206.88" rx="4.32" ry="4.32"/>
    <rect class="n" x="186" y="93.36" width="118.8" height="206.88" rx="4.32" ry="4.32"/>
  </g>
  <g id="c" data-name="COMP">
    <g>
      <path class="l" d="M195.96,147.33h.48l2.15,4.83h-.7l-.64-1.42h-2.05l-.6,1.42h-.71l2.06-4.83ZM196.97,150.12l-.77-1.74-.72,1.74h1.49Z"/>
      <path class="l" d="M198.01,147.35h4.01v.61h-1.67v4.2h-.69v-4.2h-1.65v-.61Z"/>
      <path class="l" d="M202.26,147.35h4.01v.61h-1.67v4.2h-.69v-4.2h-1.65v-.61Z"/>
      <path class="l" d="M207.75,147.33h.48l2.15,4.83h-.7l-.64-1.42h-2.05l-.6,1.42h-.71l2.06-4.83ZM208.76,150.12l-.77-1.74-.72,1.74h1.49Z"/>
      <path class="l" d="M214.77,151.04v.76c-.5.28-1.09.41-1.75.41-.54,0-.99-.11-1.36-.32-.37-.21-.67-.51-.89-.89-.22-.38-.33-.79-.33-1.23,0-.7.25-1.29.75-1.76.5-.48,1.11-.71,1.84-.71.5,0,1.06.13,1.68.4v.74c-.56-.32-1.11-.48-1.65-.48s-1.01.17-1.37.52c-.36.35-.54.78-.54,1.3s.18.96.54,1.3.81.51,1.37.51,1.15-.18,1.7-.54Z"/>
      <path class="l" d="M218.33,147.35h.86l-2.08,2.28,2.6,2.52h-.94l-2.45-2.37v2.37h-.69v-4.8h.69v2.2l2.02-2.2Z"/>
    </g>
    <g>
      <path class="l" d="M270.26,152.16v-4.8h1.2c.49,0,.87.12,1.16.36s.43.57.43.98c0,.28-.07.52-.21.73-.14.2-.34.36-.6.46.15.1.3.24.45.41.15.17.35.48.62.91.17.27.3.48.4.62l.25.34h-.82l-.21-.32s-.02-.03-.04-.06l-.13-.19-.21-.35-.23-.38c-.14-.2-.27-.35-.39-.47-.12-.12-.22-.2-.32-.25-.09-.05-.25-.08-.48-.08h-.18v2.09h-.69ZM271.15,147.94h-.21v1.52h.26c.35,0,.59-.03.72-.09s.23-.15.3-.27.11-.26.11-.41-.04-.29-.12-.41c-.08-.12-.19-.21-.34-.26s-.39-.08-.72-.08Z"/>
      <path class="l" d="M274.49,147.35h2.72v.61h-2.04v1.46h1.97v.62h-1.97v1.49h2.1v.61h-2.79v-4.79Z"/>
      <path class="l" d="M278.01,147.35h.69v4.18h2.16v.63h-2.85v-4.8Z"/>
      <path class="l" d="M281.46,147.35h2.72v.61h-2.03v1.46h1.97v.62h-1.97v1.49h2.1v.61h-2.79v-4.79Z"/>
      <path class="l" d="M286.51,147.33h.48l2.15,4.83h-.7l-.64-1.42h-2.05l-.6,1.42h-.71l2.06-4.83ZM287.52,150.12l-.78-1.74-.72,1.74h1.49Z"/>
      <path class="l" d="M290.86,150.14l-.52-.32c-.33-.2-.56-.4-.7-.59-.14-.19-.21-.42-.21-.67,0-.38.13-.69.39-.92.26-.24.6-.35,1.02-.35s.77.11,1.1.34v.78c-.35-.33-.72-.5-1.12-.5-.22,0-.41.05-.55.16s-.22.24-.22.4c0,.14.05.28.16.4.11.13.28.26.51.4l.53.31c.58.35.88.79.88,1.34,0,.38-.13.7-.39.94-.26.24-.59.36-1,.36-.47,0-.91-.15-1.3-.44v-.87c.37.47.8.71,1.29.71.21,0,.39-.06.54-.18.14-.12.21-.27.21-.45,0-.29-.21-.57-.63-.83Z"/>
      <path class="l" d="M292.9,147.35h2.72v.61h-2.03v1.46h1.97v.62h-1.97v1.49h2.1v.61h-2.79v-4.79Z"/>
    </g>
    <g>
      <path class="l" d="M234.83,192.35h4.01v.61h-1.67v4.2h-.69v-4.2h-1.65v-.61Z"/>
      <path class="l" d="M242.88,192.35h.69v4.8h-.69v-2.09h-2.7v2.09h-.69v-4.8h.69v2.08h2.7v-2.08Z"/>
      <path class="l" d="M244.64,197.16v-4.8h1.2c.49,0,.87.12,1.16.36.29.24.43.57.43.98,0,.28-.07.52-.21.73s-.34.36-.6.46c.15.1.3.24.45.41.15.17.35.48.62.91.17.27.3.48.4.62l.25.34h-.82l-.21-.32s-.02-.03-.04-.06l-.13-.19-.21-.35-.23-.38c-.14-.2-.27-.35-.39-.47-.12-.12-.23-.2-.32-.25-.1-.05-.25-.08-.48-.08h-.18v2.09h-.69ZM245.54,192.94h-.21v1.52h.26c.35,0,.59-.03.72-.09.13-.06.23-.15.3-.27s.11-.26.11-.41-.04-.29-.12-.41c-.08-.12-.19-.21-.34-.26s-.39-.08-.72-.08Z"/>
      <path class="l" d="M248.88,192.35h2.72v.61h-2.03v1.46h1.97v.62h-1.97v1.49h2.1v.61h-2.79v-4.79Z"/>
      <path class="l" d="M253.58,195.14l-.52-.32c-.33-.2-.56-.4-.7-.59-.14-.19-.21-.42-.21-.67,0-.38.13-.69.39-.92.26-.24.6-.35,1.02-.35s.77.11,1.1.34v.78c-.35-.33-.72-.5-1.12-.5-.22,0-.41.05-.55.16s-.22.24-.22.4c0,.14.05.28.16.4.11.13.28.26.51.4l.52.31c.59.35.88.79.88,1.34,0,.38-.13.7-.39.94-.26.24-.59.36-1.01.36-.47,0-.91-.15-1.3-.44v-.87c.37.47.8.71,1.29.71.22,0,.39-.06.54-.18.14-.12.21-.27.21-.45,0-.29-.21-.57-.63-.83Z"/>
    </g>
  </g>
  <g id="d" data-name="Attack Knob">
    <ellipse class="k" cx="206.8" cy="120" rx="14.05" ry="14.44"/>
  </g>
  <g id="e" data-name="Release Knob">
    <ellipse class="k" cx="282.8" cy="120" rx="14.05" ry="14.44"/>
  </g>
  <g id="f" data-name="Threshold Knob">
    <ellipse class="k" cx="244.9" cy="160" rx="16.89" ry="17.36"/>
  </g>
  <g id="g" data-name="Triangle 1 copy">
    <polygon class="l" points="208.36 96.8 210.85 99.29 213.34 96.8 208.36 96.8"/>
  </g>
  <g id="h" data-name="BYPASS">
    <g>
      <path class="l" d="M238.89,287.09h-1.07v-3.17h.83c.26,0,.47.04.61.11s.26.17.34.29c.08.12.12.27.12.43,0,.31-.16.54-.48.67.23.04.42.14.55.29.14.15.21.32.21.53,0,.16-.04.31-.12.43-.08.13-.21.23-.37.31-.16.08-.36.12-.6.12ZM238.66,284.33h-.39v.95h.3c.24,0,.41-.05.52-.14.1-.09.15-.21.15-.36,0-.3-.19-.46-.58-.46ZM238.69,285.68h-.42v1.01h.45c.25,0,.42-.02.5-.06.09-.04.16-.1.21-.18s.08-.17.08-.26-.03-.19-.09-.27-.14-.14-.24-.18c-.1-.04-.27-.06-.5-.06Z"/>
      <path class="l" d="M242.34,283.92h.55l-1.17,1.49v1.68h-.47v-1.68l-1.17-1.49h.55l.85,1.09.86-1.09Z"/>
      <path class="l" d="M243.21,287.09v-3.18h1.01c.3,0,.54.08.72.25.18.16.27.38.27.66,0,.19-.05.35-.14.49-.09.14-.22.25-.38.31s-.39.1-.69.1h-.34v1.38h-.46ZM244.14,284.32h-.47v.99h.5c.18,0,.33-.04.43-.13.1-.09.15-.21.15-.37,0-.33-.2-.49-.6-.49Z"/>
      <path class="l" d="M246.25,283.9h.32l1.42,3.19h-.46l-.42-.94h-1.35l-.4.94h-.47l1.36-3.19ZM246.92,285.75l-.51-1.15-.47,1.15h.99Z"/>
      <path class="l" d="M249.13,285.77l-.35-.21c-.22-.13-.37-.26-.46-.39s-.14-.28-.14-.44c0-.25.09-.45.26-.61.17-.16.4-.23.67-.23s.51.07.73.22v.52c-.23-.22-.47-.33-.74-.33-.15,0-.27.03-.37.1-.1.07-.14.16-.14.26,0,.1.04.18.11.27s.18.17.34.26l.35.21c.39.23.58.53.58.88,0,.25-.09.46-.26.62s-.39.24-.66.24c-.31,0-.6-.1-.86-.29v-.58c.25.31.53.47.85.47.14,0,.26-.04.36-.12s.14-.18.14-.3c0-.19-.14-.38-.42-.55Z"/>
      <path class="l" d="M251.26,285.77l-.35-.21c-.22-.13-.37-.26-.46-.39s-.14-.28-.14-.44c0-.25.09-.45.26-.61.17-.16.4-.23.67-.23s.51.07.73.22v.52c-.23-.22-.47-.33-.74-.33-.15,0-.27.03-.37.1-.1.07-.14.16-.14.26,0,.1.04.18.11.27s.18.17.34.26l.35.21c.39.23.58.53.58.88,0,.25-.09.46-.26.62s-.39.24-.66.24c-.31,0-.6-.1-.86-.29v-.58c.25.31.53.47.85.47.14,0,.26-.04.36-.12s.14-.18.14-.3c0-.19-.14-.38-.42-.55Z"/>
    </g>
  </g>
  <g id="i" data-name="COMPRESSOR">
    <g>
      <path class="l" d="M214.51,222.05v-9.66l6.6,6.9v-6.29h1.37v9.6l-6.6-6.88v6.33h-1.37Z"/>
      <path class="l" d="M224.2,219.15c0-.82.29-1.53.88-2.1s1.31-.87,2.16-.87,1.57.29,2.17.87c.59.58.88,1.3.88,2.14s-.29,1.57-.88,2.15c-.59.57-1.32.86-2.19.86s-1.57-.29-2.15-.88c-.58-.58-.87-1.3-.87-2.18ZM225.55,219.18c0,.57.15,1.02.46,1.35.31.34.72.5,1.24.5s.93-.17,1.24-.5.46-.78.46-1.33-.15-1-.46-1.33c-.31-.34-.72-.5-1.24-.5s-.91.17-1.22.5-.47.77-.47,1.3Z"/>
      <path class="l" d="M231.48,213.97c0-.23.08-.43.25-.6s.37-.25.6-.25.44.08.61.25c.17.16.25.37.25.6s-.08.44-.25.61c-.16.17-.37.25-.6.25s-.44-.08-.61-.25-.25-.37-.25-.62ZM233,216.34v5.71h-1.32v-5.71h1.32Z"/>
      <path class="l" d="M237.99,217.31l-1.09.58c-.17-.35-.38-.53-.64-.53-.12,0-.22.04-.31.12s-.13.18-.13.31c0,.22.25.44.76.65.7.3,1.17.58,1.41.83s.36.6.36,1.03c0,.55-.2,1.01-.61,1.38-.39.35-.87.53-1.43.53-.96,0-1.63-.47-2.03-1.4l1.12-.52c.16.27.28.45.36.52.16.15.35.22.57.22.45,0,.67-.2.67-.61,0-.23-.17-.45-.52-.66-.13-.07-.27-.13-.4-.19s-.27-.13-.4-.19c-.38-.19-.65-.38-.81-.56-.2-.24-.3-.54-.3-.92,0-.5.17-.91.51-1.23.35-.32.77-.49,1.27-.49.73,0,1.27.38,1.63,1.13Z"/>
      <path class="l" d="M244.74,219.5h-4.09c.04.47.19.84.46,1.12.27.27.62.41,1.04.41.33,0,.6-.08.81-.23.21-.16.45-.45.72-.87l1.11.62c-.17.29-.35.54-.54.75s-.4.38-.62.52c-.22.13-.45.23-.71.3s-.53.09-.83.09c-.85,0-1.54-.27-2.05-.82-.52-.55-.77-1.28-.77-2.19s.25-1.63.75-2.19c.5-.55,1.17-.83,2-.83s1.5.27,1.99.8c.48.53.73,1.27.73,2.21v.31ZM243.38,218.43c-.18-.7-.63-1.05-1.33-1.05-.16,0-.31.02-.45.07s-.27.12-.38.21-.21.2-.3.33-.14.28-.19.44h2.65Z"/>
      <path class="l" d="M254.79,217.34h3.74v.3c0,.68-.08,1.28-.24,1.8-.16.48-.42.94-.79,1.36-.84.95-1.91,1.42-3.21,1.42s-2.35-.46-3.25-1.37c-.9-.92-1.35-2.02-1.35-3.3s.46-2.43,1.38-3.34c.92-.92,2.04-1.38,3.35-1.38.71,0,1.37.14,1.98.43.59.29,1.16.76,1.73,1.41l-.97.93c-.74-.99-1.65-1.48-2.71-1.48-.96,0-1.76.33-2.41.99-.65.65-.97,1.46-.97,2.44s.36,1.84,1.08,2.49c.68.61,1.41.91,2.2.91.67,0,1.28-.23,1.81-.68.54-.46.83-1,.9-1.64h-2.26v-1.28Z"/>
      <path class="l" d="M264.2,216.34h1.32v5.71h-1.32v-.6c-.54.51-1.13.76-1.75.76-.79,0-1.44-.29-1.96-.86-.51-.58-.77-1.31-.77-2.18s.26-1.57.77-2.14,1.15-.86,1.92-.86c.66,0,1.26.27,1.79.82v-.66ZM261.07,219.18c0,.55.15.99.44,1.34.3.35.68.52,1.14.52.49,0,.88-.17,1.18-.5.3-.35.45-.79.45-1.32s-.15-.98-.45-1.32c-.3-.34-.69-.51-1.17-.51-.45,0-.83.17-1.14.52-.3.35-.45.78-.45,1.29Z"/>
      <path class="l" d="M268.54,217.57v4.48h-1.32v-4.48h-.56v-1.23h.56v-2.09h1.32v2.09h1.03v1.23h-1.03Z"/>
      <path class="l" d="M275.77,219.5h-4.09c.04.47.19.84.46,1.12.27.27.62.41,1.04.41.33,0,.6-.08.81-.23.21-.16.45-.45.72-.87l1.11.62c-.17.29-.35.54-.54.75s-.4.38-.62.52-.46.23-.71.3-.53.09-.83.09c-.85,0-1.54-.27-2.05-.82-.52-.55-.77-1.28-.77-2.19s.25-1.63.75-2.19c.5-.55,1.17-.83,2-.83s1.5.27,1.99.8c.48.53.73,1.27.73,2.21v.31ZM274.41,218.43c-.18-.7-.63-1.05-1.33-1.05-.16,0-.31.02-.45.07s-.27.12-.38.21-.21.2-.3.33-.14.28-.19.44h2.65Z"/>
    </g>
  </g>
  <g id="j" data-name="Triangle 2">
    <polygon class="l" points="278.16 95.28 276 99.36 280.32 99.36 278.16 95.28"/>
  </g>
</svg>