<?xml version="1.0" encoding="UTF-8"?>
<svg id="a" xmlns="http://www.w3.org/2000/svg" viewBox="0 0 290.46 290.46">
  <defs>
    <style>
      .i {
        fill: #2c2c2c;
      }

      .i, .j, .k {
        stroke-width: 0px;
      }

      .j {
        fill: #000;
      }

      .k, .l {
        fill: #ff6a6a;
      }

      .l {
        stroke: #888a9b;
        stroke-miterlimit: 100;
        stroke-width: 2px;
      }
    </style>
  </defs>
  <g id="b">
    <path class="k" d="M21.49,45.44h246.36c5.34,0,9.66,1.95,9.66,4.37v200.34c0,2.41-4.33,4.37-9.66,4.37H21.49c-5.34,0-9.66-1.95-9.66-4.37V49.8c0-2.41,4.33-4.37,9.66-4.37Z"/>
    <path class="l" d="M21.49,45.44h246.36c5.34,0,9.66,1.95,9.66,4.37v200.34c0,2.41-4.33,4.37-9.66,4.37H21.49c-5.34,0-9.66-1.95-9.66-4.37V49.8c0-2.41,4.33-4.37,9.66-4.37Z"/>
  </g>
  <g id="c" data-name="d">
    <circle class="i" cx="51.48" cy="138.57" r="22.99"/>
  </g>
  <g id="d">
    <circle class="i" cx="110.85" cy="86.22" r="22.99"/>
  </g>
  <g id="e" data-name="d">
    <circle class="i" cx="183.17" cy="86.22" r="22.99"/>
  </g>
  <g id="f" data-name="d">
    <circle class="i" cx="235.81" cy="141.06" r="22.99"/>
  </g>
  <g id="g">
    <polygon class="j" points="106.37 48.88 108.86 51.37 111.35 48.88 106.37 48.88"/>
  </g>
  <g id="h" data-name="j">
    <polygon class="j" points="176.17 47.36 174.01 51.44 178.33 51.44 176.17 47.36"/>
  </g>
  <g>
    <path class="j" d="M94.58,146.52h5.49c1.69,0,3.15.67,4.38,2.01.89,1.13,1.34,2.34,1.34,3.62v.19c0,1.55-.62,2.93-1.87,4.15-.67.56-1.33.94-1.96,1.15.83,1.42,2.06,3.55,3.69,6.4l-.02.02h-1.94c-.06-.06-.54-.9-1.44-2.52l-2.01-3.59h-4.03v6.09l-.02.02h-1.61s-.03,0-.05-.02v-17.49l.05-.02ZM96.21,148.19v8.08h3.86c1.33,0,2.44-.57,3.33-1.7.48-.72.72-1.48.72-2.28v-.12c0-1.21-.53-2.26-1.58-3.14-.75-.56-1.58-.84-2.49-.84h-3.83Z"/>
    <path class="j" d="M118.71,152.56c1.64,0,3.06.74,4.24,2.21.78,1.13,1.18,2.24,1.18,3.33v.14c0,.37-.03.55-.07.55h-9.11c0,.38.16.93.48,1.63.48.9,1.17,1.51,2.08,1.85.43.16.82.24,1.18.24,1.09,0,2.04-.48,2.85-1.44.27-.38.45-.7.53-.93h.05c.64.26,1.14.48,1.51.67-.18.5-.57,1.08-1.17,1.75-1.1,1.07-2.36,1.61-3.76,1.61-1.66,0-3.08-.73-4.27-2.18-.78-1.1-1.17-2.28-1.17-3.55v-.1c0-1.6.58-3,1.73-4.19,1.07-1.05,2.32-1.58,3.74-1.58ZM115.12,157.13h7.17c-.34-1.05-.9-1.82-1.7-2.3-.58-.38-1.21-.58-1.89-.58-1.17,0-2.17.54-3,1.63-.26.38-.45.8-.58,1.25Z"/>
    <path class="j" d="M133.47,152.68s1.32,3,3.91,9.01c.02-.02.6-1.37,1.75-4.07.48-1.1,1.19-2.75,2.13-4.94h1.87l.02.05c-.82,1.88-2.47,5.66-4.96,11.33h-1.63s-.15-.31-.41-.93c-1.02-2.32-2.55-5.8-4.58-10.45h1.89Z"/>
    <path class="j" d="M155.9,152.56c1.65,0,3.06.74,4.24,2.21.78,1.13,1.17,2.24,1.17,3.33v.14c0,.37-.02.55-.07.55h-9.11c0,.38.16.93.48,1.63.48.9,1.17,1.51,2.08,1.85.43.16.82.24,1.17.24,1.09,0,2.04-.48,2.85-1.44.27-.38.45-.7.53-.93h.05c.64.26,1.14.48,1.51.67-.18.5-.57,1.08-1.17,1.75-1.1,1.07-2.36,1.61-3.76,1.61-1.66,0-3.08-.73-4.27-2.18-.78-1.1-1.17-2.28-1.17-3.55v-.1c0-1.6.58-3,1.72-4.19,1.07-1.05,2.32-1.58,3.74-1.58ZM152.31,157.13h7.16c-.33-1.05-.9-1.82-1.7-2.3-.58-.38-1.21-.58-1.89-.58-1.17,0-2.17.54-3,1.63-.26.38-.45.8-.58,1.25Z"/>
    <path class="j" d="M174.98,152.58c.85,0,1.59.19,2.23.58-.08.4-.21,1-.38,1.8-.72-.43-1.37-.65-1.96-.65-1.33,0-2.26.62-2.8,1.87-.11.29-.17.58-.17.89v6.97s-.03,0-.05.02h-1.61l-.05-.02v-11.19s.03,0,.05-.02h1.61l.05.02v.98c.35-.48.87-.82,1.56-1.03.51-.14,1.02-.21,1.53-.21Z"/>
    <path class="j" d="M185.59,146.52h1.61l.05.02v8.03c.1-.24.43-.61,1.01-1.1.81-.61,1.74-.91,2.78-.91,1.95,0,3.51.84,4.7,2.52.66,1.02.98,2.08.98,3.16v.26c0,1.45-.54,2.79-1.63,4-.58.53-1.1.9-1.58,1.13-.78.35-1.55.53-2.3.53h-.07c-1.73,0-3.02-.66-3.88-1.99v1.87s-.03,0-.05.02h-1.61l-.05-.02v-17.49s.03,0,.05-.02ZM187.34,158.23v.14c0,1.37.53,2.51,1.58,3.4.62.46,1.39.7,2.3.7,1.26,0,2.32-.6,3.16-1.8.43-.75.65-1.49.65-2.2v-.19c0-1.2-.49-2.25-1.46-3.14-.7-.59-1.56-.89-2.56-.89-1.49,0-2.6.78-3.33,2.35-.22.59-.34,1.13-.34,1.63Z"/>
  </g>
  <g>
    <path class="j" d="M44.18,178.78h.09c.4,0,.79.1,1.18.3.12.08.26.17.4.28.07.05.16.13.26.23.15.18.25.32.32.42.05.09.1.16.13.23-.12.06-.37.18-.74.35-.05-.12-.16-.27-.32-.45-.35-.38-.77-.56-1.27-.56h-.01c-.48,0-.89.14-1.21.43-.12.12-.2.21-.23.28-.17.27-.26.56-.26.88s.1.6.3.79c.15.13.32.25.52.34.35.17.91.34,1.69.52.2.05.36.12.5.2.16.08.33.2.5.35.14.13.23.23.26.28.07.09.13.18.18.27.19.35.28.71.28,1.09h0v.08c0,.41-.11.81-.33,1.22-.27.49-.69.85-1.25,1.08-.34.12-.66.18-.96.18h-.11c-.38,0-.78-.1-1.18-.29-.12-.06-.26-.15-.41-.26-.22-.17-.41-.37-.59-.6-.12-.17-.23-.34-.32-.5-.06-.15-.09-.23-.09-.23,0,0,.26-.11.75-.32.09.2.18.37.29.53.05.07.13.17.26.29.16.16.3.26.41.32.3.16.61.25.93.25h.04c.38,0,.73-.11,1.07-.33.07-.05.16-.13.26-.23.16-.18.27-.38.33-.61.05-.18.08-.35.08-.52h0c0-.43-.14-.78-.41-1.07-.14-.12-.25-.2-.34-.23-.06-.04-.14-.07-.25-.11-.09-.03-.29-.08-.61-.15-.65-.17-1.14-.35-1.49-.54-.75-.39-1.12-.98-1.12-1.76v-.05c0-.49.14-.95.43-1.38.05-.07.14-.17.27-.3.14-.14.26-.24.36-.29.16-.11.35-.2.55-.27.3-.09.58-.14.86-.14Z"/>
    <path class="j" d="M48.54,178.88h.05c.14,0,.27.06.4.19.11.12.16.25.16.38v.04c0,.16-.07.31-.22.43-.11.09-.23.14-.35.14h-.04c-.17,0-.32-.08-.45-.23-.08-.1-.12-.21-.12-.33v-.05c0-.15.06-.29.19-.41.12-.1.24-.15.38-.15ZM48.97,181.89h.01v5.57h-.83v-5.57h.82Z"/>
    <path class="j" d="M50.77,181.89h4.42c-.53.8-1.6,2.38-3.2,4.75h3.08v.81s-.02,0-.02.01h-4.61c.54-.8,1.61-2.38,3.2-4.75h-2.88v-.8s0-.02.01-.02Z"/>
    <path class="j" d="M58.74,181.84c.8,0,1.5.36,2.07,1.08.38.55.57,1.1.57,1.63v.07c0,.18-.01.27-.04.27h-4.45c0,.19.08.45.23.8.23.44.57.74,1.02.9.21.08.4.12.57.12.53,0,1-.23,1.39-.7.13-.19.22-.34.26-.46h.02c.31.12.56.23.74.33-.09.24-.28.53-.57.86-.54.52-1.15.79-1.84.79-.81,0-1.51-.36-2.09-1.07-.38-.54-.57-1.12-.57-1.73v-.05c0-.78.28-1.46.84-2.05.52-.52,1.13-.77,1.83-.77ZM56.98,184.07h3.5c-.16-.52-.44-.89-.83-1.12-.28-.19-.59-.28-.93-.28-.57,0-1.06.27-1.46.8-.12.19-.22.39-.28.61Z"/>
  </g>
  <g>
    <path class="j" d="M96.26,124.01h2.06c.98,0,1.88.34,2.67,1.02.37.34.59.59.67.74.55.77.82,1.61.82,2.53,0,1.12-.39,2.11-1.18,2.98-.83.88-1.86,1.31-3.08,1.31h-1.96s-.02,0-.02-.01v-8.56h.02ZM97.05,124.83v6.94h1.16c1.22,0,2.18-.52,2.88-1.56.37-.61.55-1.25.55-1.91,0-1.01-.38-1.88-1.14-2.61-.24-.2-.46-.36-.66-.47-.5-.26-1.01-.39-1.54-.39h-1.27Z"/>
    <path class="j" d="M106.34,126.96c.77,0,1.38.32,1.84.95,0,0,0,.02.01.04v-.91s.02,0,.02-.02h.79s0,.02.02.02v5.54s-.02,0-.02.01h-.79s-.02,0-.02-.01v-.91c-.42.65-1.06.97-1.91.97h-.01c-.76,0-1.42-.3-1.99-.9-.48-.58-.71-1.21-.71-1.9v-.06c0-.74.26-1.4.79-1.97.55-.56,1.22-.84,1.99-.84ZM104.38,129.78v.04c0,.66.26,1.2.79,1.62.33.26.69.39,1.09.39.85,0,1.44-.41,1.77-1.24.08-.25.12-.5.12-.74v-.12c0-.34-.11-.7-.32-1.07-.37-.57-.86-.86-1.48-.86-.82,0-1.42.39-1.79,1.17-.12.28-.18.55-.18.81Z"/>
    <path class="j" d="M113.19,127.02h.11c.87,0,1.52.27,1.95.8.44-.53,1.08-.8,1.93-.8h.16c1.05,0,1.77.38,2.17,1.15.12.27.19.55.19.84v3.56h-.01c-.13.01-.39.01-.79.01,0,0-.02,0-.02-.01v-3.55c0-.47-.23-.82-.7-1.04-.23-.09-.5-.14-.8-.14h-.2c-.73,0-1.21.25-1.43.75-.05.13-.08.31-.08.54v3.45s-.02,0-.02.01h-.79s-.02,0-.02-.01v-3.5c0-.58-.29-.96-.88-1.16-.14-.05-.41-.07-.81-.07-.48,0-.85.1-1.09.31-.29.19-.43.51-.43.97v3.46s-.02,0-.02.01h-.81v-5.47s.02,0,.02-.01h.81v.56c.42-.43.95-.64,1.57-.64Z"/>
    <path class="j" d="M124.18,126.96s.01,0,.01.01h.02c.67-.01,1.28.24,1.83.74.28.3.48.59.6.84.18.41.27.8.27,1.17v.14c0,.72-.27,1.38-.82,1.97-.55.53-1.21.8-1.96.8s-1.38-.31-1.84-.94c0,0,0-.02-.01-.04v3.43s-.02,0-.02.02h-.79s0-.02-.02-.02v-7.99h.83v.84c.43-.66,1.06-.98,1.9-.98ZM122.33,129.81v.06c0,.47.17.92.52,1.36.34.39.77.59,1.28.59.78,0,1.36-.36,1.75-1.07.15-.3.22-.61.22-.91v-.08c0-.54-.21-1.02-.62-1.44-.37-.34-.79-.52-1.25-.52-.84,0-1.43.41-1.75,1.23-.09.25-.14.51-.14.79Z"/>
  </g>
  <g>
    <path class="j" d="M170.08,124.78s.05.11.11.34c.33,1.32.83,3.31,1.51,5.95h.02c.27-.85.81-2.55,1.62-5.1.06-.2.19-.59.39-1.19h.54s.08.23.22.69c.4,1.25,1,3.11,1.8,5.6h.01c.27-1.05.8-3.14,1.6-6.29h.81c-.33,1.27-.99,3.82-1.98,7.63-.02.09-.04.14-.04.14h-.68s-.07-.15-.16-.45c-.41-1.27-1.03-3.19-1.85-5.75-.33,1.03-1,3.1-1.99,6.2h-.7s-.07-.26-.2-.77c-.4-1.56-1.01-3.89-1.81-6.99h.79Z"/>
    <path class="j" d="M180.26,124.78h.04c.13,0,.25.06.36.17.1.11.15.23.15.34v.03c0,.15-.07.28-.2.39-.1.08-.21.13-.32.13h-.03c-.16,0-.29-.07-.4-.21-.07-.09-.11-.19-.11-.3v-.04c0-.13.06-.26.17-.37.11-.09.22-.14.34-.14ZM180.65,127.51h.01v5.04h-.75v-5.04h.74Z"/>
    <path class="j" d="M186.23,124.78h.73v7.75h0c-.12.01-.36.01-.72.01h0v-.84h-.01c-.38.59-.96.88-1.73.88h-.01c-.69,0-1.29-.27-1.8-.82-.43-.52-.65-1.1-.65-1.72v-.05c0-.67.24-1.27.72-1.78.5-.51,1.1-.76,1.78-.76s1.25.29,1.67.86c0,0,.01.02.02.03h.01v-3.55h0ZM182.77,130v.03c0,.59.24,1.08.71,1.46.3.23.63.35,1,.35.76,0,1.29-.38,1.58-1.12.08-.23.13-.45.13-.67v-.11c0-.31-.1-.63-.3-.96-.33-.52-.77-.77-1.33-.77-.76,0-1.31.35-1.64,1.06-.1.25-.15.5-.15.73Z"/>
    <path class="j" d="M188.78,124.78h.73v2.73h1.38v.74h0c-.23.01-.69.01-1.38.01v2.91c0,.15.04.28.12.4.08.1.18.17.3.21.06.01.11.02.16.02h.02c.13,0,.32-.05.55-.14.01,0,.04-.02.08-.03.18.4.28.62.3.68-.05.03-.15.07-.3.12-.25.08-.45.12-.59.12h-.08c-.19,0-.39-.06-.59-.17-.28-.15-.48-.37-.58-.66-.06-.18-.1-.39-.1-.61v-2.85h-.84s0-.01-.01-.01v-.74h.85v-2.73Z"/>
    <path class="j" d="M192.2,124.78h.73v3.3c.4-.39.88-.58,1.45-.58,1.04,0,1.73.37,2.06,1.11.1.23.15.47.15.74v3.18s-.01,0-.01.01h-.74v-3.18c0-.59-.32-.95-.96-1.09-.09-.01-.23-.02-.4-.02h-.21c-.59,0-1,.21-1.23.62-.06.16-.1.34-.1.54v3.13s-.01,0-.02.01h-.73v-7.75s.01,0,.02-.01Z"/>
  </g>
  <g>
    <path class="j" d="M222.31,178.88h2.58c.83,0,1.48.3,1.97.91.25.35.38.75.38,1.2v.15c0,.7-.29,1.29-.86,1.76.25.11.5.33.75.66.25.34.38.76.38,1.24v.28c0,.99-.44,1.71-1.32,2.14-.38.16-.69.23-.93.23h-2.94s-.02,0-.02-.01v-8.55h.02ZM223.11,179.7v2.87h1.72c.63,0,1.11-.26,1.42-.77.1-.2.15-.42.15-.67v-.14c0-.59-.32-1-.96-1.22-.18-.05-.36-.07-.55-.07h-1.78ZM223.11,183.38v3.26h.06c.34,0,1.02,0,2.03-.01.26,0,.54-.08.83-.25.43-.28.64-.72.64-1.31v-.28c0-.66-.35-1.09-1.04-1.31-.21-.06-.43-.09-.64-.09h-1.88Z"/>
    <path class="j" d="M229.73,178.88h.01v8.58h-.83v-8.58h.82Z"/>
    <path class="j" d="M233.69,181.84c.8,0,1.5.36,2.07,1.08.38.55.57,1.1.57,1.63v.07c0,.18-.01.27-.04.27h-4.45c0,.19.08.45.23.8.23.44.57.74,1.02.9.21.08.4.12.57.12.53,0,1-.23,1.39-.7.13-.19.22-.34.26-.46h.02c.31.12.56.23.74.33-.09.24-.28.53-.57.86-.54.52-1.15.79-1.84.79-.81,0-1.51-.36-2.09-1.07-.38-.54-.57-1.12-.57-1.73v-.05c0-.78.28-1.46.84-2.05.52-.52,1.13-.77,1.83-.77ZM231.93,184.07h3.5c-.16-.52-.44-.89-.83-1.12-.28-.19-.59-.28-.93-.28-.57,0-1.06.27-1.46.8-.12.19-.22.39-.28.61Z"/>
    <path class="j" d="M240.1,181.89h.11c1.1,0,1.84.42,2.21,1.25.1.25.15.52.15.8v3.5s-.02,0-.02.01h-.79s-.02,0-.02-.01v-3.5c0-.58-.29-.96-.88-1.16-.14-.05-.41-.07-.81-.07-.48,0-.85.1-1.09.3-.29.19-.43.51-.43.97v3.46s-.02,0-.02.01h-.81v-5.47s.02,0,.02-.01h.81v.56c.42-.43.95-.64,1.57-.64Z"/>
    <path class="j" d="M248.63,178.88h.81v8.57h-.01c-.13.01-.4.01-.8.01h0v-.93h-.01c-.42.65-1.06.97-1.91.97h-.01c-.76,0-1.42-.3-1.99-.9-.48-.58-.71-1.21-.71-1.9v-.06c0-.74.27-1.4.8-1.97.55-.56,1.21-.84,1.97-.84s1.39.32,1.84.95c0,0,.02.02.02.04h.01v-3.93h0ZM244.81,184.65v.04c0,.66.26,1.2.79,1.62.33.26.7.39,1.1.39.84,0,1.43-.41,1.75-1.24.09-.25.14-.5.14-.74v-.12c0-.34-.11-.7-.33-1.07-.37-.57-.86-.86-1.46-.86-.84,0-1.44.39-1.82,1.17-.11.28-.16.55-.16.81Z"/>
  </g>
  <g>
    <path class="j" d="M136.62,243.57h.47v2.3c.03-.07.12-.17.29-.31.23-.17.5-.26.79-.26.56,0,1,.24,1.34.72.19.29.28.59.28.9v.08c0,.42-.15.79-.46,1.14-.16.15-.31.26-.45.32-.22.1-.44.15-.66.15h-.02c-.49,0-.86-.19-1.11-.57v.53s0,0-.01,0h-.47v-5s0,0,.01,0ZM137.12,246.91v.04c0,.39.15.72.45.97.18.13.4.2.66.2.36,0,.66-.17.9-.51.12-.21.18-.42.18-.63v-.05c0-.34-.14-.64-.42-.9-.2-.17-.44-.25-.73-.25-.42,0-.74.22-.95.67-.06.17-.1.32-.1.46Z"/>
    <path class="j" d="M140.77,245.33s.06.12.16.36c.2.49.52,1.23.93,2.21,0,0,.14-.31.4-.91.47-1.11.71-1.66.71-1.66h.52c-.3.71-.91,2.12-1.82,4.24-.04.08-.11.24-.21.49h-.51c.11-.26.33-.77.65-1.54-.22-.53-.68-1.59-1.36-3.19h.54Z"/>
    <path class="j" d="M145.72,245.29s0,0,0,0h.01c.39,0,.75.14,1.07.43.16.18.28.34.35.49.11.24.16.46.16.68v.08c0,.42-.16.8-.48,1.15-.32.31-.7.46-1.14.46s-.8-.18-1.07-.55c0,0,0-.01,0-.02v2s0,0-.01.01h-.46s0,0-.01-.01v-4.66h.49v.49c.25-.38.62-.57,1.11-.57ZM144.64,246.95v.03c0,.27.1.54.3.79.2.23.45.34.75.34.46,0,.8-.21,1.02-.62.09-.18.13-.36.13-.53v-.05c0-.31-.12-.59-.36-.84-.21-.2-.46-.3-.73-.3-.49,0-.83.24-1.02.72-.05.15-.08.3-.08.46Z"/>
    <path class="j" d="M149.57,245.29c.45,0,.8.18,1.07.55,0,0,0,.01,0,.02v-.53s0,0,.01-.01h.46s0,0,.01.01v3.23s0,0-.01,0h-.46s0,0-.01,0v-.53c-.25.38-.62.57-1.11.57h0c-.44,0-.83-.18-1.16-.53-.28-.34-.42-.71-.42-1.11v-.03c0-.43.15-.82.46-1.15.32-.33.71-.49,1.16-.49ZM148.43,246.93v.02c0,.38.15.7.46.94.19.15.4.23.64.23.5,0,.84-.24,1.03-.72.05-.15.07-.29.07-.43v-.07c0-.2-.06-.41-.18-.62-.21-.33-.5-.5-.86-.5-.48,0-.83.23-1.05.68-.07.16-.1.32-.1.47Z"/>
    <path class="j" d="M153.2,245.27h.04c.23,0,.46.06.67.17.06.03.14.08.22.15.07.06.12.11.16.16.04.05.05.08.05.08-.21.12-.35.2-.41.25h0c-.04-.06-.1-.12-.18-.18-.15-.1-.32-.14-.53-.14-.24,0-.43.06-.58.17-.1.09-.16.19-.16.3,0,.09.03.15.1.19.02.02.06.05.11.07.1.05.27.1.51.16.11.02.26.05.43.08.11.03.21.06.28.1.07.03.14.08.21.13.02.01.07.05.13.12.14.16.21.33.21.53v.02c0,.2-.08.39-.23.57-.06.06-.1.11-.14.13-.07.05-.14.1-.2.13-.22.1-.44.15-.68.15h-.04c-.25,0-.49-.06-.73-.18-.22-.13-.39-.3-.52-.53,0,0,.07-.04.2-.11.05-.03.12-.07.22-.12.11.18.26.31.46.39.13.05.26.07.4.07.2,0,.38-.05.53-.14.03-.02.08-.05.13-.1.07-.09.11-.18.11-.27,0-.15-.09-.27-.28-.36-.05-.02-.12-.04-.21-.06-.36-.06-.65-.13-.85-.21-.42-.16-.63-.41-.63-.75h0c0-.22.08-.41.23-.59.08-.07.13-.12.16-.14.1-.07.22-.13.36-.16.15-.05.3-.08.45-.08Z"/>
    <path class="j" d="M156.29,245.27h.04c.23,0,.46.06.67.17.06.03.14.08.22.15.07.06.12.11.16.16.04.05.05.08.05.08-.21.12-.35.2-.41.25h0c-.04-.06-.1-.12-.18-.18-.15-.1-.32-.14-.53-.14-.24,0-.43.06-.58.17-.1.09-.16.19-.16.3,0,.09.03.15.1.19.02.02.06.05.11.07.1.05.27.1.51.16.11.02.26.05.43.08.11.03.21.06.28.1.07.03.14.08.21.13.02.01.07.05.13.12.14.16.21.33.21.53v.02c0,.2-.08.39-.23.57-.06.06-.1.11-.14.13-.07.05-.14.1-.2.13-.22.1-.44.15-.68.15h-.04c-.25,0-.49-.06-.73-.18-.22-.13-.39-.3-.52-.53,0,0,.07-.04.2-.11.05-.03.12-.07.22-.12.11.18.26.31.46.39.13.05.26.07.4.07.2,0,.38-.05.53-.14.03-.02.08-.05.13-.1.07-.09.11-.18.11-.27,0-.15-.09-.27-.28-.36-.05-.02-.12-.04-.21-.06-.36-.06-.65-.13-.85-.21-.42-.16-.63-.41-.63-.75h0c0-.22.08-.41.23-.59.08-.07.13-.12.16-.14.1-.07.22-.13.36-.16.15-.05.3-.08.45-.08Z"/>
  </g>
</svg>