<?xml version="1.0" encoding="UTF-8"?>
<svg id="a" data-name="Comp" xmlns="http://www.w3.org/2000/svg" viewBox="0 0 483.6 350.4">
  <defs>
    <style>
      .k {
        fill: #2c2c2c;
      }

      .k, .l, .m {
        stroke-width: 0px;
      }

      .l {
        fill: #000;
      }

      .m {
        fill: #74ffa5;
      }

      .n {
        fill: none;
        stroke: #888a9b;
        stroke-miterlimit: 100;
        stroke-width: 2px;
      }
    </style>
  </defs>
  <g id="b" data-name="Rectangle 5">
    <rect class="m" x="186" y="93.36" width="118.8" height="206.88" rx="4.32" ry="4.32"/>
    <rect class="n" x="186" y="93.36" width="118.8" height="206.88" rx="4.32" ry="4.32"/>
  </g>
  <g id="c" data-name="COMP">
    <g>
      <path class="l" d="M204.11,163.93c-.36,0-.64-.1-.83-.31s-.29-.52-.29-.92v-3.39h-1.22v-.47h1.79v3.91c0,.25.06.43.19.54.12.11.29.17.49.17s.42-.05.64-.15l.15.43c-.16.07-.31.12-.44.15s-.29.05-.48.05Z"/>
      <path class="l" d="M207.79,163.93c-.34,0-.65-.07-.93-.21s-.5-.35-.67-.62c-.16-.27-.25-.59-.25-.98s.08-.69.25-.96c.16-.27.38-.47.64-.62.27-.14.55-.21.85-.21.49,0,.88.15,1.15.44.27.29.41.68.41,1.17,0,.07,0,.13,0,.19,0,.06-.01.11-.02.16h-2.7c.04.38.18.68.43.87.25.2.55.3.9.3.21,0,.39-.03.56-.09s.33-.14.48-.24l.21.38c-.17.11-.36.21-.58.29s-.47.12-.74.12ZM207.7,160.8c-.28,0-.53.09-.75.27-.22.18-.36.44-.41.78h2.18c-.02-.35-.13-.61-.31-.79s-.42-.26-.71-.26Z"/>
      <path class="l" d="M211.49,163.85l-1.44-3.42h.58l.79,1.94c.07.17.14.34.2.51s.13.33.19.5h.03c.06-.16.12-.33.18-.5s.12-.34.19-.51l.79-1.94h.56l-1.41,3.42h-.65Z"/>
      <path class="l" d="M216.23,163.93c-.34,0-.65-.07-.93-.21s-.5-.35-.67-.62c-.16-.27-.25-.59-.25-.98s.08-.69.25-.96c.16-.27.38-.47.64-.62.27-.14.55-.21.85-.21.49,0,.88.15,1.15.44.27.29.41.68.41,1.17,0,.07,0,.13,0,.19,0,.06-.01.11-.02.16h-2.7c.04.38.18.68.43.87.25.2.55.3.9.3.21,0,.39-.03.56-.09s.33-.14.48-.24l.21.38c-.17.11-.36.21-.58.29s-.47.12-.74.12ZM216.15,160.8c-.28,0-.53.09-.75.27-.22.18-.36.44-.41.78h2.18c-.02-.35-.13-.61-.31-.79s-.42-.26-.71-.26Z"/>
      <path class="l" d="M221,163.93c-.36,0-.64-.1-.83-.31s-.29-.52-.29-.92v-3.39h-1.22v-.47h1.79v3.91c0,.25.06.43.19.54.12.11.29.17.49.17s.42-.05.64-.15l.15.43c-.16.07-.31.12-.44.15-.13.04-.29.05-.48.05Z"/>
    </g>
    <g>
      <path class="l" d="M268.15,163.93c-.45,0-.8-.16-1.08-.47-.27-.31-.41-.75-.41-1.32,0-.37.07-.69.22-.96.15-.27.34-.48.58-.62.24-.15.49-.22.76-.22.21,0,.39.04.56.12.16.08.32.19.46.33h.02l-.03-.63v-1.32h.58v5.01h-.48l-.05-.45h-.02c-.14.15-.31.27-.5.38-.2.11-.4.16-.61.16ZM268.27,163.45c.34,0,.66-.17.96-.51v-1.7c-.16-.15-.31-.25-.45-.31-.15-.06-.3-.09-.45-.09-.2,0-.38.05-.54.17s-.29.26-.39.46c-.1.19-.14.42-.14.69,0,.41.09.73.27.96.18.23.42.35.74.35Z"/>
      <path class="l" d="M271.49,163.85v-3.42h.48l.05.81h.02c.18-.28.4-.5.66-.65.26-.16.55-.24.87-.24.13,0,.25,0,.36.03s.22.06.32.11l-.13.5c-.12-.04-.22-.07-.3-.09-.08-.02-.19-.03-.33-.03-.26,0-.51.07-.74.22-.24.15-.46.4-.67.76v2.01h-.58Z"/>
      <path class="l" d="M276.91,163.85v-2.95h-1.59v-.47h2.17v3.42h-.58ZM277.14,159.71c-.13,0-.24-.04-.33-.12-.09-.08-.13-.19-.13-.33s.04-.25.13-.33c.09-.08.2-.12.33-.12s.24.04.33.12c.09.08.13.19.13.33s-.04.25-.13.33c-.09.08-.2.12-.33.12Z"/>
      <path class="l" d="M280.71,163.85l-1.44-3.42h.58l.79,1.94c.07.17.14.34.2.51s.13.33.19.5h.03c.06-.16.12-.33.18-.5s.12-.34.19-.51l.79-1.94h.56l-1.42,3.42h-.65Z"/>
      <path class="l" d="M285.46,163.93c-.34,0-.65-.07-.93-.21s-.5-.35-.67-.62c-.16-.27-.25-.59-.25-.98s.08-.69.25-.96.38-.47.64-.62c.26-.14.55-.21.85-.21.49,0,.88.15,1.15.44s.41.68.41,1.17c0,.07,0,.13,0,.19,0,.06-.01.11-.02.16h-2.7c.04.38.18.68.43.87s.55.3.9.3c.21,0,.39-.03.56-.09.17-.06.33-.14.48-.24l.21.38c-.17.11-.36.21-.58.29s-.47.12-.74.12ZM285.37,160.8c-.28,0-.53.09-.75.27-.22.18-.36.44-.41.78h2.18c-.02-.35-.13-.61-.31-.79-.18-.17-.42-.26-.71-.26Z"/>
    </g>
    <g>
      <path class="l" d="M239.23,200.14c-.33,0-.6-.06-.79-.18-.19-.12-.33-.29-.41-.5-.08-.21-.12-.46-.12-.74v-1.62h-.96v-.44l.99-.04.08-1.1h.48v1.1h1.68v.47h-1.68v1.63c0,.3.06.54.19.7.12.16.35.24.68.24.16,0,.31-.01.44-.04s.26-.07.38-.11l.13.42c-.15.06-.32.1-.49.14s-.36.06-.58.06Z"/>
      <path class="l" d="M242.79,200.14c-.3,0-.58-.07-.83-.21-.26-.14-.46-.34-.62-.61s-.24-.59-.24-.96.08-.71.24-.98.36-.47.62-.61c.26-.14.53-.21.83-.21s.58.07.83.21.46.34.62.61.24.59.24.98-.08.7-.24.96-.36.47-.62.61-.53.21-.83.21ZM242.79,199.67c.33,0,.59-.12.79-.36.2-.24.3-.56.3-.95s-.1-.71-.3-.96c-.2-.24-.46-.37-.79-.37s-.59.12-.79.37c-.2.24-.3.56-.3.96s.1.71.3.95c.2.24.46.36.79.36Z"/>
      <path class="l" d="M245.56,200.06v-3.42h.48l.05.58h.03c.18-.19.37-.35.58-.48s.44-.19.71-.19c.4,0,.7.12.89.35s.29.58.29,1.03v2.13h-.58v-2.05c0-.32-.06-.56-.18-.72s-.32-.24-.6-.24c-.2,0-.38.05-.54.16-.16.1-.34.26-.54.46v2.39h-.58Z"/>
      <path class="l" d="M251.45,200.14c-.34,0-.65-.07-.93-.21s-.5-.35-.67-.62c-.16-.27-.25-.59-.25-.98s.08-.69.25-.96.38-.47.64-.62c.26-.14.55-.21.85-.21.49,0,.88.15,1.15.44s.41.68.41,1.17c0,.07,0,.13,0,.19,0,.06-.01.11-.02.16h-2.7c.04.38.18.68.43.87s.55.3.9.3c.21,0,.39-.03.56-.09.17-.06.33-.14.48-.24l.21.38c-.17.11-.36.21-.58.29-.22.08-.47.12-.74.12ZM251.36,197.01c-.28,0-.53.09-.75.27-.22.18-.36.44-.41.78h2.18c-.02-.35-.13-.61-.31-.79-.18-.17-.42-.26-.71-.26Z"/>
    </g>
  </g>
  <g id="d" data-name="Attack Knob">
    <circle class="k" cx="211.8" cy="130" r="17.5" transform="translate(-33.63 90.95) rotate(-22.5)"/>
  </g>
  <g id="e" data-name="Release Knob">
    <circle class="k" cx="276.8" cy="130" r="17.5" transform="translate(-28.68 115.82) rotate(-22.5)"/>
  </g>
  <g id="f" data-name="Threshold Knob">
    <circle class="k" cx="244.9" cy="170" r="14" transform="translate(-46.41 106.66) rotate(-22.5)"/>
  </g>
  <g id="g" data-name="Triangle 1 copy">
    <polygon class="l" points="208.36 96.8 210.85 99.29 213.34 96.8 208.36 96.8"/>
  </g>
  <g id="h" data-name="BYPASS">
    <g>
      <path class="l" d="M238.95,287.15c-.11,0-.23-.03-.35-.08-.13-.05-.24-.13-.35-.23h-.01l-.03.25h-.31v-3.31h.38v1.34s0,0,0,0c.1-.11.22-.19.36-.25.14-.06.27-.09.4-.09.3,0,.54.1.7.31.16.21.24.49.24.84,0,.26-.05.48-.14.66s-.22.32-.38.42c-.15.1-.32.14-.5.14ZM238.89,286.83c.2,0,.36-.08.49-.24.13-.16.2-.38.2-.66,0-.25-.05-.45-.15-.6s-.26-.23-.49-.23c-.1,0-.21.03-.32.08-.11.05-.23.14-.35.26v1.12c.11.1.22.16.33.21.11.04.21.06.29.06Z"/>
      <path class="l" d="M240.86,288.07c-.11,0-.21-.02-.3-.05l.08-.3s.06.02.1.02.07,0,.1,0c.16,0,.29-.04.39-.14.1-.09.18-.21.23-.35l.07-.17-1.06-2.26h.39l.55,1.25c.04.1.09.21.14.32.05.12.1.23.14.33h.02c.04-.11.08-.22.12-.33.04-.11.08-.22.12-.32l.49-1.25h.36l-1,2.45c-.06.15-.13.28-.21.4-.08.12-.19.21-.31.28-.12.07-.27.1-.44.1Z"/>
      <path class="l" d="M243.48,288.05v-3.21h.32l.03.29h.01c.11-.1.23-.18.37-.25.14-.06.28-.1.42-.1.3,0,.54.11.7.31.16.21.24.49.24.84,0,.25-.05.47-.14.66s-.22.32-.38.42c-.16.1-.32.14-.51.14-.11,0-.22-.03-.34-.08-.12-.05-.23-.12-.33-.22h-.01l.02.43v.76h-.38ZM244.46,286.83c.2,0,.37-.08.5-.24.13-.16.2-.38.2-.66,0-.25-.05-.45-.15-.6-.1-.15-.26-.23-.49-.23-.1,0-.21.03-.32.08-.11.05-.23.14-.35.26v1.12c.11.1.22.16.33.21.11.04.2.06.28.06Z"/>
      <path class="l" d="M246.98,287.15c-.14,0-.27-.03-.38-.08-.12-.05-.21-.12-.28-.22-.07-.1-.1-.21-.1-.34,0-.17.05-.31.17-.43.11-.11.29-.2.53-.27.24-.07.56-.12.94-.15,0-.1-.02-.2-.06-.28-.04-.08-.1-.15-.19-.21s-.2-.08-.35-.08-.29.03-.43.09c-.14.06-.26.12-.37.18l-.15-.26c.11-.07.26-.15.44-.22.18-.07.37-.11.56-.11.31,0,.54.08.69.25s.23.39.23.68v1.39h-.31l-.03-.31h-.01c-.12.1-.26.18-.42.25-.16.07-.31.11-.47.11ZM247.08,286.84c.13,0,.25-.03.38-.09.13-.06.26-.14.38-.25v-.6c-.32.03-.58.06-.76.11-.18.05-.31.12-.39.19-.08.08-.11.16-.11.26,0,.13.05.22.15.28.1.06.22.09.35.09Z"/>
      <path class="l" d="M250.07,287.15c-.22,0-.43-.04-.62-.1s-.36-.15-.49-.25l.18-.25c.13.09.27.17.43.22.16.06.34.08.55.08.19,0,.34-.03.43-.1.09-.07.14-.15.14-.25,0-.06-.02-.11-.05-.16-.03-.05-.1-.09-.2-.14-.1-.04-.25-.08-.46-.12-.29-.06-.51-.15-.66-.25-.15-.1-.22-.24-.22-.41,0-.18.08-.34.24-.46.16-.12.39-.18.7-.18.17,0,.34.03.5.09.16.06.3.12.41.2l-.19.25c-.11-.07-.22-.13-.35-.17-.13-.04-.26-.07-.41-.07-.19,0-.33.03-.41.1-.08.07-.12.14-.12.23,0,.1.05.17.16.22.1.05.27.1.5.15.25.05.44.11.58.18.13.07.23.14.28.22.05.08.08.18.08.3s-.04.23-.12.33c-.08.1-.19.18-.34.25-.15.06-.33.09-.55.09Z"/>
      <path class="l" d="M252.86,287.15c-.22,0-.43-.04-.62-.1s-.36-.15-.49-.25l.18-.25c.13.09.27.17.43.22.16.06.34.08.55.08.19,0,.34-.03.43-.1.09-.07.14-.15.14-.25,0-.06-.02-.11-.05-.16-.03-.05-.1-.09-.2-.14-.1-.04-.25-.08-.46-.12-.29-.06-.51-.15-.66-.25-.15-.1-.22-.24-.22-.41,0-.18.08-.34.24-.46.16-.12.39-.18.7-.18.17,0,.34.03.5.09.16.06.3.12.41.2l-.19.25c-.11-.07-.22-.13-.35-.17-.13-.04-.26-.07-.41-.07-.19,0-.33.03-.41.1-.08.07-.12.14-.12.23,0,.1.05.17.16.22.1.05.27.1.5.15.25.05.44.11.58.18.13.07.23.14.28.22.05.08.08.18.08.3s-.04.23-.12.33c-.08.1-.19.18-.34.25-.15.06-.33.09-.55.09Z"/>
    </g>
  </g>
  <g id="i" data-name="COMPRESSOR">
    <g>
      <path class="l" d="M213.02,218.09c0-2.58,1.26-4.03,3.08-4.03s3.08,1.45,3.08,4.03-1.27,4.1-3.08,4.1-3.08-1.47-3.08-4.1ZM217.75,218.09c0-1.8-.65-2.81-1.65-2.81s-1.65,1.02-1.65,2.81.65,2.89,1.65,2.89,1.65-1.04,1.65-2.89Z"/>
      <path class="l" d="M220.19,216.16h1.4l1.14,3.05c.21.59.4,1.18.59,1.78h.05c.19-.59.36-1.19.58-1.78l1.14-3.05h1.33l-2.3,5.89h-1.58l-2.35-5.89Z"/>
      <path class="l" d="M227.64,219.09c0-1.92,1.46-3.08,3.04-3.08,1.76,0,2.73,1.17,2.73,2.8,0,.28-.04.54-.06.7h-4.72v-.98h3.82l-.27.31c0-1.16-.55-1.75-1.47-1.75-.97,0-1.72.7-1.72,2.02s.83,2.02,2.05,2.02c.62,0,1.12-.18,1.65-.48l.47.86c-.63.41-1.44.7-2.31.7-1.8,0-3.22-1.14-3.22-3.1Z"/>
      <path class="l" d="M235.66,216.16h1.14l.12,1.34h.03c.6-.96,1.49-1.48,2.51-1.48.48,0,.8.07,1.15.24l-.29,1.17c-.39-.12-.62-.18-1.07-.18-.81,0-1.6.41-2.2,1.56v3.25h-1.39v-5.89Z"/>
      <path class="l" d="M241.94,219.11c0-1.92,1.26-3.1,2.59-3.1.67,0,1.17.25,1.62.69h.03l-.07-.99v-2.13h1.39v8.47h-1.13l-.11-.69h-.04c-.46.46-1.11.83-1.78.83-1.52,0-2.51-1.14-2.51-3.08ZM246.12,220.34v-2.65c-.42-.39-.83-.53-1.25-.53-.82,0-1.51.7-1.51,1.93s.54,1.95,1.43,1.95c.49,0,.92-.22,1.33-.71Z"/>
      <path class="l" d="M250.06,216.16h1.14l.12,1.34h.03c.6-.96,1.49-1.48,2.51-1.48.48,0,.8.07,1.15.24l-.29,1.17c-.39-.12-.62-.18-1.07-.18-.81,0-1.6.41-2.2,1.56v3.25h-1.39v-5.89Z"/>
      <path class="l" d="M259.25,217.26h-2.54v-1.1h3.93v5.89h-1.39v-4.79ZM258.87,214.16c0-.55.42-.93.99-.93s.99.38.99.93-.42.93-.99.93-.99-.37-.99-.93Z"/>
      <path class="l" d="M263.39,216.16h1.4l1.14,3.05c.21.59.4,1.18.59,1.78h.05c.19-.59.36-1.19.58-1.78l1.14-3.05h1.33l-2.3,5.89h-1.58l-2.35-5.89Z"/>
      <path class="l" d="M270.84,219.09c0-1.92,1.46-3.08,3.04-3.08,1.76,0,2.73,1.17,2.73,2.8,0,.28-.04.54-.06.7h-4.72v-.98h3.82l-.27.31c0-1.16-.55-1.75-1.47-1.75-.97,0-1.72.7-1.72,2.02s.83,2.02,2.05,2.02c.62,0,1.12-.18,1.65-.48l.47.86c-.63.41-1.44.7-2.31.7-1.8,0-3.22-1.14-3.22-3.1Z"/>
    </g>
  </g>
  <g id="j" data-name="Triangle 2">
    <polygon class="l" points="278.16 95.28 276 99.36 280.32 99.36 278.16 95.28"/>
  </g>
</svg>